<svg width="144" height="35" viewBox="0 0 144 35" fill="none" xmlns="http://www.w3.org/2000/svg">
<path d="M0.699219 34.97H8.60922L24.5592 7.35001L20.6092 0.5L0.699219 34.97Z" fill="#FFDA79"/>
<path d="M48.4186 34.97L28.5186 0.5L24.5586 7.35001L40.5086 34.97H48.4186Z" fill="#FFDA79"/>
<path d="M24.5591 16.0195L13.6191 34.9695H35.4991L24.5591 16.0195Z" fill="#FFDA79"/>
<path d="M64.6589 10.6004L59.5989 22.3004H56.8789L63.2489 7.54039L66.0389 7.5304L72.4689 22.2704H69.7489L64.6589 10.6004Z" fill="black"/>
<path d="M80.0198 19.76L80.0398 7.5H77.5398L77.5098 22.25L86.4998 22.27V19.77L80.0198 19.76Z" fill="black"/>
<path d="M100.269 7.88077C100.909 8.15077 101.479 8.52077 101.959 8.99077C102.439 9.46077 102.829 10.0108 103.109 10.6408C103.389 11.2808 103.529 11.9508 103.529 12.6608C103.529 13.3708 103.389 14.0408 103.109 14.6808C102.829 15.3208 102.449 15.8708 101.969 16.3408C101.489 16.8108 100.919 17.1808 100.279 17.4608C99.6385 17.7308 98.9385 17.8708 98.1985 17.8708L94.2285 17.8808L94.2385 22.2408H91.7385L91.7285 15.3908L98.1985 15.3808C98.5885 15.3808 98.9585 15.3108 99.2985 15.1608C99.6385 15.0208 99.9385 14.8208 100.199 14.5808C100.459 14.3408 100.659 14.0508 100.809 13.7208C100.959 13.3908 101.039 13.0408 101.039 12.6808C101.039 12.3008 100.959 11.9508 100.809 11.6308C100.659 11.3108 100.449 11.0208 100.199 10.7808C99.9385 10.5408 99.6385 10.3508 99.2985 10.2008C98.9585 10.0608 98.5885 9.99077 98.1985 9.99077L91.7285 10.0008V7.50076L98.1985 7.49077C98.9285 7.48077 99.6285 7.61077 100.269 7.88077Z" fill="black"/>
<path d="M122.32 7.43066L122.35 22.1807H119.85L119.84 16.0507L112.11 18.7007L112.12 22.2007H109.62L109.59 7.45067H112.09L112.11 16.0707L119.84 13.4207L119.83 7.43066H122.32Z" fill="black"/>
<path d="M135.169 10.4704L130.109 22.1704H127.389L133.759 7.4104L136.549 7.40039L142.979 22.1404H140.259L135.169 10.4704Z" fill="black"/>
<path d="M56.8691 25.4199H57.8091C58.0491 25.4199 58.2491 25.4999 58.4091 25.6599C58.5691 25.8199 58.6591 26.0199 58.6591 26.2599C58.6591 26.4999 58.5791 26.6999 58.4191 26.8599C58.2591 27.0199 58.0591 27.0999 57.8191 27.0999H57.2991V27.9799H56.8791L56.8691 25.4199ZM57.2891 26.7099H57.8091C57.9291 26.7099 58.0391 26.6699 58.1191 26.5799C58.1991 26.4999 58.2391 26.3899 58.2391 26.2599C58.2391 26.1299 58.1991 26.0199 58.1191 25.9399C58.0391 25.8599 57.9391 25.8099 57.8091 25.8099H57.2891V26.7099Z" fill="#4F4F4D"/>
<path d="M61.4395 27.9799H60.9795L60.4395 27.0499H59.9395V27.9799H59.5195V25.4199H60.5395C60.7695 25.4199 60.9595 25.4999 61.1195 25.6599C61.2795 25.8199 61.3595 26.0099 61.3595 26.2399C61.3595 26.3999 61.3095 26.5499 61.2195 26.6899C61.1295 26.8299 60.9995 26.9199 60.8495 26.9899L61.4395 27.9799ZM60.5395 25.8099H59.9395V26.6699H60.5395C60.6495 26.6699 60.7495 26.6299 60.8295 26.5399C60.9095 26.4599 60.9495 26.3599 60.9495 26.2399C60.9495 26.1199 60.9095 26.0199 60.8295 25.9399C60.7495 25.8499 60.6495 25.8099 60.5395 25.8099Z" fill="#4F4F4D"/>
<path d="M64.3698 27.6399C64.1098 27.8999 63.7998 28.0299 63.4298 28.0299C63.0598 28.0299 62.7398 27.8999 62.4798 27.6499C62.2198 27.3899 62.0898 27.0799 62.0898 26.7099C62.0898 26.3399 62.2198 26.0299 62.4698 25.7699C62.7298 25.5099 63.0399 25.3799 63.4099 25.3799C63.7799 25.3799 64.0899 25.5099 64.3499 25.7699C64.6099 26.0299 64.7399 26.3399 64.7399 26.7099C64.7499 27.0599 64.6298 27.3799 64.3698 27.6399ZM62.7798 27.3499C62.9598 27.5199 63.1698 27.6099 63.4298 27.6099C63.6898 27.6099 63.8999 27.5199 64.0699 27.3499C64.2499 27.1699 64.3298 26.9499 64.3298 26.6899C64.3298 26.4299 64.2398 26.2099 64.0598 26.0399C63.8898 25.8599 63.6698 25.7799 63.4198 25.7799C63.1598 25.7799 62.9499 25.8699 62.7699 26.0399C62.5999 26.2099 62.5098 26.4299 62.5098 26.6999C62.5198 26.9599 62.5998 27.1799 62.7798 27.3499Z" fill="#4F4F4D"/>
<path d="M65.6191 25.4102H66.5591C66.7991 25.4102 66.9991 25.4901 67.1591 25.6501C67.3191 25.8101 67.4091 26.0102 67.4091 26.2502C67.4091 26.4902 67.3291 26.6902 67.1691 26.8502C67.0091 27.0102 66.8092 27.0901 66.5692 27.0901H66.0491V27.9702H65.6292L65.6191 25.4102ZM66.0391 26.7001H66.5591C66.6791 26.7001 66.7891 26.6602 66.8691 26.5702C66.9491 26.4902 66.9892 26.3802 66.9892 26.2502C66.9892 26.1202 66.9491 26.0101 66.8691 25.9301C66.7891 25.8501 66.6891 25.8002 66.5591 25.8002H66.0391V26.7001Z" fill="#4F4F4D"/>
<path d="M68.6898 26.8694V27.5594H69.8198V27.9594H68.2598V25.3994H69.7998V25.7994H68.6798V26.4694H69.6998V26.8694H68.6898Z" fill="#4F4F4D"/>
<path d="M72.6095 27.9594H72.1494L71.6095 27.0294H71.1095V27.9594H70.6895V25.3994H71.7095C71.9395 25.3994 72.1294 25.4794 72.2894 25.6394C72.4494 25.7994 72.5294 25.9894 72.5294 26.2194C72.5294 26.3794 72.4795 26.5294 72.3895 26.6694C72.2995 26.8094 72.1695 26.8994 72.0195 26.9694L72.6095 27.9594ZM71.7095 25.7894H71.1095V26.6494H71.7095C71.8195 26.6494 71.9195 26.6094 71.9995 26.5194C72.0795 26.4394 72.1194 26.3394 72.1194 26.2194C72.1194 26.0994 72.0795 25.9994 71.9995 25.9194C71.9195 25.8294 71.8195 25.7894 71.7095 25.7894Z" fill="#4F4F4D"/>
<path d="M73.1484 25.3896H75.0184V25.7896H74.2984V27.9496H73.8784V25.7896H73.1584L73.1484 25.3896Z" fill="#4F4F4D"/>
<path d="M77.2984 25.3896H77.7784L76.8884 26.9397V27.9597H76.4684V26.9397L75.5684 25.3996H76.0484L76.6783 26.5296L77.2984 25.3896Z" fill="#4F4F4D"/>
<path d="M79.8887 25.4492H80.8987C81.2487 25.4492 81.5387 25.5692 81.7787 25.8192C82.0087 26.0692 82.1287 26.3692 82.1287 26.7292C82.1287 27.0892 82.0087 27.3892 81.7787 27.6392C81.5487 27.8892 81.2587 28.0092 80.9087 28.0092H79.8987L79.8887 25.4492ZM80.3087 27.6092H80.8987C81.1387 27.6092 81.3387 27.5292 81.4887 27.3592C81.6387 27.1892 81.7187 26.9792 81.7187 26.7292C81.7187 26.4792 81.6387 26.2692 81.4887 26.0992C81.3387 25.9292 81.1387 25.8492 80.8987 25.8492H80.3087V27.6092Z" fill="#4F4F4D"/>
<path d="M83.4085 26.9192V27.6092H84.5385V28.0092H82.9785V25.4492H84.5185V25.8492H83.3985V26.5192H84.4185V26.9192H83.4085Z" fill="#4F4F4D"/>
<path d="M86.5677 27.9997H86.0677L85.1777 25.4397H85.6377L86.3177 27.4897L86.9977 25.4297H87.4577L86.5677 27.9997Z" fill="#4F4F4D"/>
<path d="M88.639 26.9095V27.5995H89.769V27.9995H88.209V25.4395H89.749V25.8394H88.629V26.5094H89.649V26.9095H88.639Z" fill="#4F4F4D"/>
<path d="M91.0587 25.4296V27.5896H92.0987V27.9896H90.6387V25.4296H91.0587Z" fill="#4F4F4D"/>
<path d="M94.8796 27.6496C94.6196 27.9096 94.3096 28.0396 93.9396 28.0396C93.5696 28.0396 93.2496 27.9097 92.9896 27.6597C92.7296 27.3997 92.5996 27.0897 92.5996 26.7197C92.5996 26.3497 92.7296 26.0396 92.9796 25.7796C93.2396 25.5196 93.5496 25.3896 93.9196 25.3896C94.2896 25.3896 94.5996 25.5196 94.8596 25.7796C95.1196 26.0396 95.2496 26.3497 95.2496 26.7197C95.2696 27.0797 95.1396 27.3896 94.8796 27.6496ZM93.2896 27.3696C93.4696 27.5396 93.6796 27.6297 93.9396 27.6297C94.1996 27.6297 94.4096 27.5396 94.5796 27.3696C94.7596 27.1896 94.8396 26.9697 94.8396 26.7097C94.8396 26.4497 94.7496 26.2296 94.5696 26.0596C94.3996 25.8796 94.1796 25.7997 93.9296 25.7997C93.6696 25.7997 93.4596 25.8897 93.2796 26.0697C93.1096 26.2397 93.0196 26.4596 93.0196 26.7296C93.0296 26.9696 93.1196 27.1896 93.2896 27.3696Z" fill="#4F4F4D"/>
<path d="M96.1289 25.4199H97.0689C97.3089 25.4199 97.5089 25.4999 97.6689 25.6599C97.8289 25.8199 97.9189 26.0199 97.9189 26.2599C97.9189 26.4999 97.8389 26.6999 97.6789 26.8599C97.5189 27.0199 97.3189 27.0999 97.0789 27.0999H96.5589V27.9799H96.1389L96.1289 25.4199ZM96.5489 26.7099H97.0689C97.1889 26.7099 97.2989 26.6699 97.3789 26.5799C97.4589 26.4999 97.4989 26.3899 97.4989 26.2599C97.4989 26.1299 97.4589 26.0199 97.3789 25.9399C97.2989 25.8599 97.1989 25.8099 97.0689 25.8099H96.5489V26.7099Z" fill="#4F4F4D"/>
<path d="M100.779 25.4199H101.229V27.9799H100.809V26.1499L100.029 27.4399H99.9793L99.1993 26.1499V27.9799H98.7793V25.4199H99.2293L99.9993 26.6999L100.779 25.4199Z" fill="#4F4F4D"/>
<path d="M102.649 26.8792V27.5692H103.779V27.9692H102.219V25.4092H103.759V25.8092H102.639V26.4792H103.659V26.8792H102.649Z" fill="#4F4F4D"/>
<path d="M106.188 27.1396V25.3996H106.608V27.9596H106.278L105.068 26.2196V27.9596H104.648V25.3996H104.978L106.188 27.1396Z" fill="#4F4F4D"/>
<path d="M107.398 25.3996H109.268V25.7996H108.548V27.9596H108.128V25.7996H107.408L107.398 25.3996Z" fill="#4F4F4D"/>
<path d="M110.84 28.0096C110.59 28.0096 110.38 27.9596 110.21 27.8396C110.04 27.7296 109.92 27.5796 109.85 27.3796L110.21 27.1696C110.31 27.4596 110.53 27.5996 110.85 27.5996C111.01 27.5996 111.12 27.5696 111.2 27.5096C111.28 27.4496 111.32 27.3696 111.32 27.2596C111.32 27.1596 111.28 27.0796 111.19 27.0196C111.1 26.9596 110.95 26.8996 110.74 26.8396C110.52 26.7696 110.34 26.6996 110.2 26.6096C110.03 26.4896 109.95 26.3196 109.95 26.0896C109.95 25.8596 110.03 25.6796 110.19 25.5496C110.35 25.4196 110.54 25.3496 110.77 25.3496C110.97 25.3496 111.15 25.3996 111.31 25.4996C111.47 25.5996 111.58 25.7396 111.67 25.9196L111.32 26.1296C111.21 25.8896 111.03 25.7696 110.78 25.7696C110.66 25.7696 110.56 25.7996 110.49 25.8596C110.42 25.9196 110.38 25.9996 110.38 26.0896C110.38 26.1896 110.42 26.2596 110.49 26.3096C110.56 26.3596 110.7 26.4196 110.9 26.4796C111.02 26.5196 111.09 26.5496 111.11 26.5496C111.14 26.5596 111.21 26.5796 111.3 26.6196C111.38 26.6496 111.44 26.6896 111.49 26.7196C111.68 26.8696 111.77 27.0396 111.75 27.2496C111.75 27.4796 111.67 27.6696 111.5 27.7996C111.34 27.9396 111.12 28.0096 110.84 28.0096Z" fill="#4F4F4D"/>
<path d="M116.219 28.0192H115.769L115.589 27.4992H114.499L114.319 28.0192H113.859L114.779 25.4592H115.289L116.219 28.0192ZM115.029 25.9492L114.629 27.1092H115.439L115.029 25.9492Z" fill="#4F4F4D"/>
<path d="M118.509 27.1895V25.4495H118.929V28.0095H118.599L117.389 26.2695V28.0095H116.969V25.4495H117.299L118.509 27.1895Z" fill="#4F4F4D"/>
<path d="M119.92 25.4495H120.93C121.28 25.4495 121.57 25.5695 121.81 25.8195C122.04 26.0695 122.16 26.3695 122.16 26.7295C122.16 27.0895 122.04 27.3895 121.81 27.6395C121.58 27.8895 121.29 28.0095 120.94 28.0095H119.93L119.92 25.4495ZM120.35 27.6095H120.94C121.18 27.6095 121.38 27.5295 121.53 27.3595C121.68 27.1895 121.76 26.9795 121.76 26.7295C121.76 26.4795 121.68 26.2695 121.53 26.0995C121.38 25.9295 121.18 25.8495 120.94 25.8495H120.35V27.6095Z" fill="#4F4F4D"/>
<path d="M124.84 25.4397V27.5997H125.88V27.9997H124.42V25.4397H124.84Z" fill="#4F4F4D"/>
<path d="M127.1 26.9097V27.5997H128.23V27.9997H126.67V25.4397H128.21V25.8397H127.09V26.5097H128.11V26.9097H127.1Z" fill="#4F4F4D"/>
<path d="M128.898 25.4299H130.768V25.8299H130.048V27.9899H129.628V25.8299H128.908L128.898 25.4299Z" fill="#4F4F4D"/>
<path d="M131.359 25.4299H133.229V25.8299H132.509V27.9899H132.089V25.8299H131.369L131.359 25.4299Z" fill="#4F4F4D"/>
<path d="M134.029 27.9899V25.4299H134.449V27.9899H134.029Z" fill="#4F4F4D"/>
<path d="M136.979 27.1592V25.4192H137.399V27.9792H137.069L135.859 26.2392V27.9792H135.439V25.4192H135.769L136.979 27.1592Z" fill="#4F4F4D"/>
<path d="M139.61 26.6494H140.89V26.8294C140.89 27.1794 140.78 27.4694 140.54 27.6894C140.31 27.9094 140.01 28.0194 139.63 28.0194C139.23 28.0194 138.91 27.8894 138.65 27.6394C138.39 27.3794 138.26 27.0694 138.26 26.6994C138.26 26.3294 138.39 26.0194 138.64 25.7594C138.9 25.4994 139.22 25.3694 139.6 25.3694C139.84 25.3694 140.05 25.4194 140.25 25.5294C140.45 25.6394 140.6 25.7894 140.71 25.9694L140.35 26.1794C140.28 26.0594 140.18 25.9594 140.05 25.8794C139.92 25.8094 139.77 25.7694 139.6 25.7694C139.33 25.7694 139.11 25.8594 138.94 26.0294C138.77 26.2094 138.68 26.4294 138.68 26.6894C138.68 26.9494 138.77 27.1694 138.94 27.3394C139.12 27.5094 139.35 27.5994 139.63 27.5994C139.85 27.5994 140.04 27.5494 140.18 27.4394C140.32 27.3294 140.41 27.1894 140.45 27.0094H139.59L139.61 26.6494Z" fill="#4F4F4D"/>
<path d="M142.519 28.0196C142.269 28.0196 142.059 27.9696 141.889 27.8496C141.719 27.7396 141.599 27.5896 141.529 27.3896L141.889 27.1796C141.989 27.4696 142.209 27.6096 142.529 27.6096C142.689 27.6096 142.799 27.5796 142.889 27.5196C142.969 27.4596 143.009 27.3796 143.009 27.2696C143.009 27.1696 142.969 27.0896 142.879 27.0296C142.789 26.9696 142.639 26.9096 142.429 26.8496C142.209 26.7796 142.029 26.7096 141.889 26.6196C141.719 26.4996 141.639 26.3296 141.639 26.0996C141.639 25.8696 141.719 25.6896 141.879 25.5596C142.039 25.4296 142.229 25.3596 142.459 25.3596C142.659 25.3596 142.839 25.4096 142.999 25.5096C143.149 25.6096 143.269 25.7496 143.359 25.9296L143.009 26.1396C142.899 25.8996 142.719 25.7796 142.469 25.7796C142.349 25.7796 142.249 25.8096 142.179 25.8696C142.109 25.9296 142.069 25.9996 142.069 26.0996C142.069 26.1996 142.109 26.2696 142.179 26.3296C142.249 26.3796 142.389 26.4396 142.589 26.4996C142.709 26.5396 142.779 26.5696 142.799 26.5696C142.829 26.5796 142.899 26.5996 142.989 26.6396C143.069 26.6696 143.129 26.7096 143.179 26.7396C143.369 26.8896 143.459 27.0596 143.439 27.2696C143.439 27.4996 143.359 27.6896 143.189 27.8196C143.009 27.9496 142.789 28.0196 142.519 28.0196Z" fill="#4F4F4D"/>
</svg>
